# xmcd
#
# Track frame offsets:
#	150
#	14079
#	27298
#	40005
#	51624
#	62897
#	75646
#	87570
#	106140
#	116528
#	131670
#	147420
#	162963
#	176713
#	194721
#	209785
#	226932
#	243914
#	262480
#	283038
#	298692
#	316781
#	331945
#
# Disc length: 4622 seconds
#
# Revision: 1
# Processed by: cddbd v1.5.2PL0 Copyright (c) Steve Scherf et al.
# Submitted via: EZCDAudioConverter 1.0.6.1
#
DISCID=69120c17
DTITLE=Unknown
DYEAR=2007
DGENRE=Soul
TTITLE0=Johnnie Taylor - i had a dream
TTITLE1=Johnnie Taylor - i got to love somebody's baby
TTITLE2=Johnnie Taylor - somebody's sleeping in my bed
TTITLE3=Johnnie Taylor - next time
TTITLE4=Johnnie Taylor - i ain't particular
TTITLE5=Johnnie Taylor - who's making love
TTITLE6=Johnnie Taylor - take care of yout homework
TTITLE7=Johnnie Taylor - testify (i wonna)
TTITLE8=Johnnie Taylor - i could never be president
TTITLE9=Johnnie Taylor - love bones
TTITLE10=Johnnie Taylor - steal away
TTITLE11=Johnnie Taylor - i am somebody (pt 2)
TTITLE12=Johnnie Taylor - jody's got your girl and gone
TTITLE13=Johnnie Taylor - i don't wanna lose you
TTITLE14=Johnnie Taylor - hijackin love
TTITLE15=Johnnie Taylor - standing in for jody
TTITLE16=Johnnie Taylor - doing my own thing (pt 1)
TTITLE17=Johnnie Taylor - stop doggin me
TTITLE18=Johnnie Taylor - i believe in you (you believe in me)
TTITLE19=Johnnie Taylor - cheaper to keep her
TTITLE20=Johnnie Taylor - we're getting careless with our love
TTITLE21=Johnnie Taylor - i've been born again
TTITLE22=Unknown - it's september
EXTD=
EXTT0=
EXTT1=
EXTT2=
EXTT3=
EXTT4=
EXTT5=
EXTT6=
EXTT7=
EXTT8=
EXTT9=
EXTT10=
EXTT11=
EXTT12=
EXTT13=
EXTT14=
EXTT15=
EXTT16=
EXTT17=
EXTT18=
EXTT19=
EXTT20=
EXTT21=
EXTT22=
PLAYORDER=
